<svg width="256" height="256" viewBox="0 0 256 256" xmlns="http://www.w3.org/2000/svg" role="img" aria-label="Realify">
  <defs>
    <linearGradient id="realifyGradient" x1="0" y1="0" x2="1" y2="1">
      <stop offset="0%" stop-color="#14b8a6" />
      <stop offset="100%" stop-color="#0ea5a3" />
    </linearGradient>
  </defs>
  <rect width="256" height="256" rx="56" fill="url(#realifyGradient)" />
  <circle cx="96" cy="96" r="10" fill="#ffffff" opacity="0.7" />
  <circle cx="156" cy="78" r="6" fill="#ffffff" opacity="0.5" />
  <path d="M72 168c0-23.2 18.8-42 42-42h14c27.6 0 50 22.4 50 50v8c0 13.3-10.7 24-24 24H96c-13.3 0-24-10.7-24-24v-16z" fill="#ffffff" />
  <path d="M118 150h22c11.6 0 21 9.4 21 21v7c0 5-4 9-9 9h-46c-5 0-9-4-9-9v-7c0-11.6 9.4-21 21-21z" fill="#0f766e" opacity="0.2" />
  <path d="M110 118h24l24 14-24 14h-24l24-14-24-14z" fill="#0f766e" opacity="0.25" />
</svg>
